<svg xmlns="http://www.w3.org/2000/svg" width="120" height="30" viewBox="0 0 120 30">
    <g fill="none" fill-rule="evenodd">
        <path fill="#EE3440" fill-opacity=".5" d="M0 0h60v30H0z"/>
        <path fill="#2D2D2D" d="M6.73 23h2.398v-4.532c0-2.332 1.034-3.608 2.728-3.608.374 0 .572 0 .946.044v-2.2c-.264-.066-.572-.088-.946-.088-1.122 0-2.354.66-2.728 2.112v-1.98H6.73V23zm17.336-5.654c0 .462-.022.704-.066 1.32h-7.612c.066 1.628 1.122 2.508 2.86 2.508 1.188 0 1.892-.374 2.288-1.166h2.42c-.308 1.914-2.244 3.256-4.708 3.256-3.234 0-5.236-2.068-5.236-5.39 0-3.278 2.024-5.39 5.148-5.39 2.926 0 4.906 1.98 4.906 4.862zm-7.678-.506h5.324c-.022-1.584-.946-2.464-2.596-2.464-1.694 0-2.706 1.012-2.728 2.464zm14.63 4.136c-.946 0-1.496-.22-1.496-2.002V14.75h2.354v-2.002h-2.354V9.646h-2.398v3.102h-1.738v2.002h1.738v4.774c0 3.454 2.156 3.608 3.322 3.608.704 0 1.408-.066 1.782-.132v-2.112a9.13 9.13 0 0 1-1.21.088zm7.678 2.288c-3.3 0-5.038-2.376-5.038-5.39s1.914-5.39 5.104-5.39c1.364 0 2.596.616 3.212 1.65v-1.386h2.398V23h-2.398v-1.386c-.616 1.034-2.024 1.65-3.278 1.65zm.352-2.134c2.046 0 3.036-1.496 3.036-3.256 0-1.76-.99-3.256-3.036-3.256-1.87 0-2.992 1.386-2.992 3.256 0 1.87 1.122 3.256 2.992 3.256zm9.614-9.856c1.056 0 1.782-.792 1.782-1.782s-.726-1.782-1.782-1.782-1.782.792-1.782 1.782.726 1.782 1.782 1.782zM47.452 23h2.398V12.748h-2.398V23zm5.478 0h2.398V7.6H52.93V23zm12.188-11.726c1.056 0 1.782-.792 1.782-1.782s-.726-1.782-1.782-1.782-1.782.792-1.782 1.782.726 1.782 1.782 1.782zM63.908 23h2.398V12.748h-2.398V23zm13.024-10.252h2.398V27.62h-2.398v-6.006c-.616 1.034-2.024 1.65-3.278 1.65-3.3 0-5.038-2.376-5.038-5.39s1.914-5.39 5.104-5.39c1.364 0 2.596.616 3.212 1.65v-1.386zm-2.926 8.382c2.046 0 3.036-1.496 3.036-3.256 0-1.76-.99-3.256-3.036-3.256-1.87 0-2.992 1.386-2.992 3.256 0 1.87 1.122 3.256 2.992 3.256zm19.734-8.646c2.926 0 4.884 2.156 4.884 5.39 0 3.168-2.068 5.39-5.038 5.39-1.364 0-2.662-.66-3.278-1.65v6.006H87.91V12.748h2.398v1.386c.616-.99 1.98-1.65 3.432-1.65zm-.506 8.646c1.76 0 2.992-1.342 2.992-3.256 0-1.914-1.232-3.256-2.992-3.256-1.804 0-3.036 1.32-3.036 3.256 0 1.936 1.232 3.256 3.036 3.256zm7.7 1.87h2.398v-4.532c0-2.332 1.034-3.608 2.728-3.608.374 0 .572 0 .946.044v-2.2c-.264-.066-.572-.088-.946-.088-1.122 0-2.354.66-2.728 2.112v-1.98h-2.398V23zm12.694.264c-3.388 0-5.412-2.376-5.412-5.39s2.024-5.39 5.412-5.39 5.412 2.376 5.412 5.39-2.024 5.39-5.412 5.39zm0-2.134c1.936 0 3.014-1.386 3.014-3.256 0-1.87-1.078-3.256-3.014-3.256-1.936 0-3.014 1.386-3.014 3.256 0 1.87 1.078 3.256 3.014 3.256z"/>
    </g>
</svg>
