<svg xmlns="http://www.w3.org/2000/svg" width="29" height="24" viewBox="0 0 29 24">
    <g fill="#657383" fill-opacity=".2" fill-rule="nonzero">
        <path d="M9.794 10.914h-3.81c-.453 0-.838-.158-1.155-.476a1.575 1.575 0 0 1-.477-1.156v-.544c0-1.202.426-2.227 1.276-3.078.85-.85 1.876-1.275 3.077-1.275h1.089c.294 0 .55-.107.765-.323.215-.215.323-.47.323-.765V1.121c0-.295-.108-.55-.323-.766a1.047 1.047 0 0 0-.765-.323H8.705c-1.179 0-2.303.23-3.375.69a8.773 8.773 0 0 0-2.78 1.861A8.766 8.766 0 0 0 .69 5.363 8.48 8.48 0 0 0 0 8.738v11.97c0 .907.317 1.677.952 2.312.635.635 1.406.952 2.313.952h6.529c.907 0 1.677-.317 2.312-.952.635-.635.952-1.405.952-2.312v-6.53c0-.906-.317-1.677-.952-2.312-.635-.634-1.406-.952-2.312-.952zM27.341 11.866c-.634-.634-1.405-.952-2.312-.952H21.22c-.453 0-.839-.158-1.156-.476a1.574 1.574 0 0 1-.476-1.156v-.544c0-1.202.425-2.227 1.275-3.078.85-.85 1.876-1.275 3.078-1.275h1.088c.295 0 .55-.107.765-.323.215-.215.323-.47.323-.765V1.121c0-.295-.108-.55-.323-.766a1.046 1.046 0 0 0-.765-.323H23.94c-1.18 0-2.304.23-3.376.69a8.773 8.773 0 0 0-2.78 1.861 8.763 8.763 0 0 0-1.861 2.78 8.482 8.482 0 0 0-.69 3.375v11.97c0 .907.318 1.677.953 2.312.635.635 1.406.952 2.312.952h6.53c.906 0 1.677-.317 2.312-.952.635-.635.952-1.405.952-2.312v-6.53c0-.906-.317-1.677-.952-2.312z"/>
    </g>
</svg>
